# xmcd
#
# Track frame offsets:
#	150
#	12495
#	23933
#	39367
#	55371
#	72226
#	83781
#	99632
#	110388
#	123333
#	140962
#	155507
#
# Disc length: 2111 seconds
# Revision: 1
# Processed by: cddbd v1.5.2PL0 Copyright (c) Steve Scherf et al.
# Submitted via: dBpowerAMP V12.0
#
DISCID=a4083d0c
DTITLE=Christie Lynn - Dixie Girl
DYEAR=2001
DGENRE=Country
TTITLE0=Moonshine Quiver
TTITLE1=Left Aat The Light
TTITLE2=At This Moment
TTITLE3=It's About Us
TTITLE4=Tough Talkin' Cowboy
TTITLE5=Before I'm Ever Over You
TTITLE6=One In A Row
TTITLE7=Better Move It On Home (With G. Jones, P. Loveless and P. Wagoner)
TTITLE8=Any Man But You
TTITLE9=Dixie Girl
TTITLE10=To Get To You
TTITLE11=Outdoor World
EXTD=
EXTT0=
EXTT1=
EXTT2=
EXTT3=
EXTT4=
EXTT5=
EXTT6=
EXTT7=
EXTT8=
EXTT9=
EXTT10=
EXTT11=
PLAYORDER=
